<svg width="36" height="36" viewBox="0 0 36 36" fill="none" xmlns="http://www.w3.org/2000/svg">
<path d="M33 0H3C2.2045 0.00049672 1.44173 0.316727 0.879228 0.879228C0.316727 1.44173 0.00049672 2.2045 0 3V33C0.00049672 33.7955 0.316727 34.5583 0.879228 35.1208C1.44173 35.6833 2.2045 35.9995 3 36H23.379C23.7731 36.0007 24.1633 35.9234 24.5274 35.7725C24.8914 35.6217 25.222 35.4002 25.5 35.121L35.1212 25.5C35.4004 25.2219 35.6218 24.8913 35.7727 24.5273C35.9235 24.1632 36.0008 23.7729 36 23.3788V3C35.9995 2.2045 35.6833 1.44173 35.1208 0.879228C34.5583 0.316727 33.7955 0.00049672 33 0ZM12 10.5H24C24.3978 10.5 24.7794 10.658 25.0607 10.9393C25.342 11.2206 25.5 11.6022 25.5 12C25.5 12.3978 25.342 12.7794 25.0607 13.0607C24.7794 13.342 24.3978 13.5 24 13.5H12C11.6022 13.5 11.2206 13.342 10.9393 13.0607C10.658 12.7794 10.5 12.3978 10.5 12C10.5 11.6022 10.658 11.2206 10.9393 10.9393C11.2206 10.658 11.6022 10.5 12 10.5ZM18 25.5H12C11.6022 25.5 11.2206 25.342 10.9393 25.0607C10.658 24.7794 10.5 24.3978 10.5 24C10.5 23.6022 10.658 23.2206 10.9393 22.9393C11.2206 22.658 11.6022 22.5 12 22.5H18C18.3978 22.5 18.7794 22.658 19.0607 22.9393C19.342 23.2206 19.5 23.6022 19.5 24C19.5 24.3978 19.342 24.7794 19.0607 25.0607C18.7794 25.342 18.3978 25.5 18 25.5ZM12 19.5C11.6022 19.5 11.2206 19.342 10.9393 19.0607C10.658 18.7794 10.5 18.3978 10.5 18C10.5 17.6022 10.658 17.2206 10.9393 16.9393C11.2206 16.658 11.6022 16.5 12 16.5H24C24.3978 16.5 24.7794 16.658 25.0607 16.9393C25.342 17.2206 25.5 17.6022 25.5 18C25.5 18.3978 25.342 18.7794 25.0607 19.0607C24.7794 19.342 24.3978 19.5 24 19.5H12ZM24 32.379V23.997H32.3818L24 32.379Z" fill="#A3E2F7"/>
</svg>
