<svg width="99" height="99" viewBox="0 0 99 99" fill="none" xmlns="http://www.w3.org/2000/svg">
<path d="M30.0752 91.6824C23.1175 88.1164 17.2229 83.7764 12.5099 78.7427C7.2346 73.1098 3.65313 66.8648 1.86905 60.1787C-0.960191 49.577 1.06868 38.8058 7.58889 29.8424C11.7855 24.0739 17.8706 19.7024 25.6829 16.8501C32.7026 14.2825 40.8027 13.0383 49.7593 13.1544C53.1351 13.1985 56.5062 13.4273 59.8574 13.8397C51.7711 8.31735 43.5272 5.31064 36.4785 5.52674C35.8286 5.53497 35.2012 5.28785 34.7314 4.8386C34.2616 4.38935 33.987 3.77392 33.9667 3.12489C33.9465 2.47587 34.1822 1.84518 34.6231 1.36869C35.064 0.892195 35.6748 0.608037 36.3239 0.577419C46.6933 0.267961 59.0763 5.84291 70.2341 15.6856C80.34 18.0482 89.8831 21.9708 97.5935 27.084C97.8647 27.2638 98.0979 27.4952 98.2797 27.765C98.4615 28.0348 98.5884 28.3376 98.6531 28.6562C98.7178 28.9748 98.7191 29.3029 98.6569 29.6219C98.5947 29.9408 98.4702 30.2444 98.2906 30.5151C98.1109 30.7858 97.8796 31.0185 97.6098 31.1998C97.34 31.3811 97.0371 31.5075 96.7182 31.5717C96.3994 31.636 96.071 31.6369 95.7517 31.5743C95.4324 31.5118 95.1284 31.387 94.8572 31.2072C89.8677 27.8979 83.9211 25.0943 77.5221 22.9386C82.3958 28.4011 86.4982 34.3876 89.5063 40.4549C93.4453 48.399 95.382 56.3031 95.1101 63.3153C94.8511 69.9523 93.251 75.8941 90.3536 80.9741C87.6349 85.7438 83.7518 89.7473 79.0656 92.612C66.8312 100.18 49.5081 100.516 33.8605 93.4906C32.559 92.9115 31.2972 92.3088 30.0752 91.6824ZM67.9405 20.2837C61.9476 18.94 55.8337 18.2113 49.6941 18.1092C41.4662 18.0064 33.7449 19.177 27.3824 21.5047C20.5139 24.0159 15.203 27.8038 11.5944 32.7634C5.97299 40.4926 4.21844 49.7784 6.65506 58.9112C9.97093 71.3292 20.3467 82.0053 35.8763 88.9804C42.8006 92.0884 50.2538 93.676 57.4301 93.5726C64.6064 93.4691 71.1584 91.6834 76.4417 88.407C84.9694 83.1319 89.7115 74.3871 90.1502 63.1217C90.6269 50.9053 83.2286 35.5583 70.8482 23.0772C69.8908 22.1114 68.9216 21.1803 67.9405 20.2837Z" fill="#00A773"/>
</svg>
