<svg width="87" height="108" viewBox="0 0 87 108" fill="none" xmlns="http://www.w3.org/2000/svg">
<path d="M21.4754 10.2744C17.6615 19.708 9.13844 25.5828 6.16075 32.6158C2.12099 42.14 4.26209 51.4527 3.14507 59.1912C1.95484 67.3822 -2.29121 76.0587 1.65483 85.7306C5.87846 96.1014 17.3293 98.9674 27.0083 102.021C36.4042 104.986 47.1783 109.897 57.224 106.983C67.2357 104.081 73.6426 94.2486 79.9239 86.4971C83.9287 81.569 87.8237 76.5337 85.3295 69.8694C83.4391 64.8191 75.5433 61.283 72.8362 55.2152C70.4391 49.8377 73.307 42.4728 72.1382 36.2961C70.5204 27.7438 62.1326 23.0801 57.3548 17.7269C51.6565 11.3399 47.2052 2.84994 40.464 1.00495C30.9517 -1.59089 24.0518 3.89532 21.4754 10.2744Z" fill="#00A773"/>
</svg>
