<svg width="161" height="31" viewBox="0 0 161 31" fill="none" xmlns="http://www.w3.org/2000/svg">
<path d="M61.8214 13.4652C57.0434 13.4652 55.1459 10.4323 55.1459 7.12781C55.1459 3.97403 57.2291 0.653809 61.8214 0.653809C63.6015 0.653809 65.1609 1.26354 66.5678 2.60214L64.432 4.68714C64.088 4.34792 63.6802 4.08034 63.232 3.89988C62.7839 3.71943 62.3044 3.62969 61.8214 3.63588C59.449 3.63588 58.5677 5.55092 58.5677 7.14008C58.5677 8.72923 59.4157 10.5304 61.8214 10.5304C62.9079 10.5043 63.9417 10.0562 64.7036 9.28114L66.736 11.5589C65.3466 12.9483 63.7031 13.4739 61.8301 13.4739" fill="white"/>
<path d="M73.7512 3.58515C71.7696 3.58515 70.4222 5.00961 70.4222 7.04205C70.4222 9.07448 71.7941 10.4832 73.7512 10.4832C75.7678 10.4832 77.0802 9.05871 77.0802 7.04205C77.0802 4.92376 75.7924 3.58515 73.7512 3.58515ZM73.7512 13.4477C69.7529 13.4477 66.9565 11.1262 66.9565 7.04205C66.9565 3.04376 69.7599 0.620605 73.7512 0.620605C77.7425 0.620605 80.5301 2.97543 80.5301 7.04205C80.5301 11.1087 77.7267 13.4477 73.7512 13.4477Z" fill="white"/>
<path d="M89.2395 9.5684H88.6298L85.5794 5.89074V13.1427H82.1558V0.925293H85.7668L88.9854 5.06025L92.1883 0.925293H95.7994V13.1427H92.3757V5.8557L89.2395 9.5684Z" fill="white"/>
<path d="M105.188 9.5684H104.576L101.526 5.89074V13.1427H98.1039V0.925293H101.713L104.932 5.06025L108.135 0.925293H111.746V13.1427H108.322V5.8557L105.188 9.5684Z" fill="white"/>
<path d="M114.049 13.1427V0.925293H123.589V3.82327H117.455V5.56836H123.234V8.38223H117.455V10.2289H123.828V13.1427H114.049Z" fill="white"/>
<path d="M129.063 6.61962H131.605C132.52 6.61962 132.926 5.95732 132.926 5.19516C132.926 4.43299 132.487 3.6866 131.57 3.6866H129.063V6.61962ZM133.112 13.1357L130.267 9.17067H129.063V13.1357H125.606V0.925293H131.563C134.699 0.925293 136.325 2.94196 136.325 5.13033C136.325 6.63889 135.8 7.93369 133.732 8.82551L136.919 12.9429V13.1357H133.112Z" fill="white"/>
<path d="M144.211 13.4652C139.433 13.4652 137.534 10.4323 137.534 7.12781C137.534 3.97403 139.619 0.653809 144.211 0.653809C145.992 0.653809 147.551 1.26354 148.958 2.60214L146.826 4.68714C146.482 4.34792 146.074 4.08034 145.626 3.89988C145.177 3.71943 144.698 3.62969 144.215 3.63588C141.843 3.63588 140.961 5.55092 140.961 7.14008C140.961 8.72923 141.809 10.5304 144.215 10.5304C145.302 10.5029 146.336 10.0529 147.097 9.27589L149.13 11.5536C147.74 12.943 146.097 13.4687 144.215 13.4687" fill="white"/>
<path d="M150.363 13.1427V0.925293H159.905V3.82327H153.769V5.56836H159.55V8.38223H153.769V10.2289H160.142V13.1427H150.363Z" fill="white"/>
<path d="M47.0702 25.1922H50.2065L48.6471 21.2938L47.0702 25.1922ZM45.9051 28.0902L45.1079 30.0893H41.4442L46.9178 17.8667H50.4097L55.8657 30.0841H52.1723L51.3751 28.0849L45.9051 28.0902Z" fill="white"/>
<path d="M61.8212 30.4114C57.0432 30.4114 55.1457 27.3786 55.1457 24.0741C55.1457 20.9203 57.2289 17.6001 61.8212 17.6001C63.6013 17.6001 65.1607 18.2098 66.5676 19.5484L64.4318 21.6334C64.0878 21.2942 63.68 21.0266 63.2319 20.8462C62.7837 20.6657 62.3043 20.576 61.8212 20.5822C59.4489 20.5822 58.5675 22.4972 58.5675 24.0864C58.5675 25.6755 59.4156 27.4767 61.8212 27.4767C62.9085 27.4492 63.9423 26.9992 64.7034 26.2222L66.7358 28.4999C65.3464 29.8893 63.7029 30.415 61.83 30.415" fill="white"/>
<path d="M72.2639 25.1922H75.3984L73.8408 21.2938L72.2639 25.1922ZM71.0952 28.0902L70.298 30.0893H66.6379L72.1114 17.8667H75.6016L81.0594 30.0841H77.366L76.567 28.0902H71.0952Z" fill="white"/>
<path d="M87.1093 27.1756C89.2941 27.1756 90.0738 25.5304 90.0738 23.8466C90.0738 22.1628 89.2276 20.7454 87.1093 20.7454H85.2959V27.1686L87.1093 27.1756ZM93.4974 23.8869C93.4974 27.2422 91.4983 30.0893 87.1093 30.0893H81.8723V17.8667H87.1093C91.4299 17.8667 93.4974 20.5439 93.4974 23.8817" fill="white"/>
<path d="M95.1584 30.0893V17.8701H104.699V20.7698H98.5645V22.5149H104.343V25.3271H98.5645V27.1755H104.935V30.0893H95.1584Z" fill="white"/>
<path d="M113.799 26.5147H113.189L110.139 22.837V30.089H106.715V17.8716H110.325L113.545 22.0065L116.748 17.8716H120.357V30.089H116.934V22.802L113.799 26.5147Z" fill="white"/>
<path d="M130.372 17.8716H134.268V18.024L129.422 25.2251V30.089H125.965V25.2251L121.322 18.0065V17.8716H125.219L127.745 22.0573L130.372 17.8716Z" fill="white"/>
<path d="M44.6222 5.45267C45.1128 4.21043 46.2324 3.35015 47.776 3.35015C48.9797 3.35015 50.4234 3.75488 50.8351 5.45267H44.6222ZM54.0169 6.90691C54.0169 2.61252 51.4151 0.490723 47.7094 0.490723C43.8197 0.490723 41.1671 3.19422 41.1671 6.98401C41.1671 10.9753 43.7952 13.5772 47.8864 13.5772C49.8137 13.5772 51.953 12.8938 53.2425 11.4554L51.161 9.4457C50.5566 10.129 49.2144 10.6179 47.9266 10.6179C45.9713 10.6179 44.5416 9.68574 44.4224 8.18419H53.9644C53.9889 7.80399 54.0152 7.26084 54.0152 6.90691" fill="white"/>
<path d="M26.6056 17.9207C26.4731 18.4352 26.1733 18.891 25.7533 19.2164C25.3334 19.5419 24.8171 19.7184 24.2858 19.7184H12.9463C12.4157 19.7158 11.9007 19.5382 11.4813 19.2132C11.0619 18.8881 10.7614 18.4339 10.6265 17.9207C10.234 16.2825 9.15472 12.9395 9.15472 11.2627C9.15472 10.257 9.91338 9.58772 10.8788 9.58772H26.3533C27.317 9.58772 28.0756 10.257 28.0756 11.2627C28.0756 12.9482 27.0139 16.2948 26.6056 17.9207ZM22.4391 25.3776C21.9699 25.3776 21.5113 25.2385 21.1211 24.9778C20.731 24.7171 20.4269 24.3466 20.2474 23.9131C20.0678 23.4797 20.0208 23.0027 20.1124 22.5425C20.2039 22.0823 20.4299 21.6596 20.7616 21.3278C21.0934 20.996 21.5161 20.7701 21.9763 20.6785C22.4365 20.587 22.9135 20.634 23.347 20.8135C23.7805 20.9931 24.151 21.2972 24.4117 21.6873C24.6723 22.0774 24.8115 22.5361 24.8115 23.0053C24.8115 23.6345 24.5615 24.2379 24.1166 24.6828C23.6717 25.1277 23.0683 25.3776 22.4391 25.3776ZM14.793 25.3776C14.324 25.3766 13.8658 25.2366 13.4764 24.9753C13.087 24.714 12.7837 24.3431 12.605 23.9095C12.4262 23.4759 12.38 22.9991 12.4721 22.5393C12.5642 22.0794 12.7906 21.6572 13.1226 21.3259C13.4546 20.9947 13.8773 20.7693 14.3373 20.6782C14.7974 20.587 15.2741 20.6343 15.7073 20.814C16.1405 20.9937 16.5107 21.2978 16.7711 21.6878C17.0316 22.0779 17.1706 22.5363 17.1706 23.0053C17.1706 23.6345 16.9206 24.2379 16.4757 24.6828C16.0308 25.1277 15.4274 25.3776 14.7982 25.3776H14.793ZM8.19632 7.16457C8.21137 6.77432 8.37821 6.40537 8.66131 6.13634C8.94441 5.86731 9.32138 5.71948 9.71188 5.72434H14.3392C14.5333 5.72455 14.7255 5.76335 14.9045 5.83848C15.0835 5.91362 15.2458 6.02359 15.3819 6.162C15.5181 6.30041 15.6253 6.46451 15.6975 6.64474C15.7696 6.82498 15.8052 7.01776 15.8022 7.21187C15.7867 7.60197 15.6197 7.97065 15.3367 8.23959C15.0537 8.50852 14.677 8.65651 14.2866 8.6521H9.65932C9.46518 8.65189 9.27303 8.61309 9.09402 8.53795C8.91501 8.46282 8.75272 8.35285 8.61659 8.21444C8.48046 8.07602 8.3732 7.91193 8.30105 7.73169C8.2289 7.55146 8.19331 7.35868 8.19632 7.16457ZM0 9.14444C0 20.7836 8.34175 30.2187 18.6318 30.2187C28.9219 30.2187 37.2636 20.7836 37.2636 9.14444C37.2636 -2.49476 0 -2.49476 0 9.14444Z" fill="#00A773"/>
</svg>
