<svg width="34" height="40" viewBox="0 0 34 40" fill="none" xmlns="http://www.w3.org/2000/svg">
<path d="M33.5 2V32C33.5 32.3978 33.342 32.7794 33.0607 33.0607C32.7794 33.342 32.3978 33.5 32 33.5H6.5C5.70462 33.5009 4.94208 33.8173 4.37967 34.3797C3.81725 34.9421 3.50089 35.7046 3.5 36.5H29C29.3978 36.5 29.7794 36.658 30.0607 36.9393C30.342 37.2206 30.5 37.6022 30.5 38C30.5 38.3978 30.342 38.7794 30.0607 39.0607C29.7794 39.342 29.3978 39.5 29 39.5H2C1.60218 39.5 1.22064 39.342 0.93934 39.0607C0.658036 38.7794 0.5 38.3978 0.5 38V6.5C0.501836 4.90926 1.13457 3.38421 2.25939 2.25939C3.38421 1.13457 4.90926 0.501836 6.5 0.5H32C32.3978 0.5 32.7794 0.658035 33.0607 0.93934C33.342 1.22064 33.5 1.60218 33.5 2Z" fill="#A3E2F7"/>
</svg>
