<svg width="36" height="30" viewBox="0 0 36 30" fill="none" xmlns="http://www.w3.org/2000/svg">
<path d="M9 3C9 2.60218 9.15803 2.22064 9.43934 1.93934C9.72064 1.65804 10.1022 1.5 10.5 1.5H34.5C34.8978 1.5 35.2793 1.65804 35.5607 1.93934C35.842 2.22064 36 2.60218 36 3C36 3.39782 35.842 3.77936 35.5607 4.06066C35.2793 4.34196 34.8978 4.5 34.5 4.5H10.5C10.1022 4.5 9.72064 4.34196 9.43934 4.06066C9.15803 3.77936 9 3.39782 9 3ZM34.5 13.5H10.5011C10.1033 13.5 9.72177 13.658 9.44046 13.9393C9.15916 14.2206 9.00112 14.6022 9.00112 15C9.00112 15.3978 9.15916 15.7794 9.44046 16.0607C9.72177 16.342 10.1033 16.5 10.5011 16.5H34.5C34.8978 16.5 35.2793 16.342 35.5607 16.0607C35.842 15.7794 36 15.3978 36 15C36 14.6022 35.842 14.2206 35.5607 13.9393C35.2793 13.658 34.8978 13.5 34.5 13.5ZM34.5 25.5H10.5011C10.1033 25.5 9.72177 25.658 9.44046 25.9393C9.15916 26.2206 9.00112 26.6022 9.00112 27C9.00112 27.3978 9.15916 27.7794 9.44046 28.0607C9.72177 28.342 10.1033 28.5 10.5011 28.5H34.5C34.8978 28.5 35.2793 28.342 35.5607 28.0607C35.842 27.7794 36 27.3978 36 27C36 26.6022 35.842 26.2206 35.5607 25.9393C35.2793 25.658 34.8978 25.5 34.5 25.5ZM2.25 12.75C1.80499 12.75 1.36998 12.882 0.999968 13.1292C0.629957 13.3764 0.341569 13.7278 0.171272 14.139C0.000974893 14.5501 -0.0435826 15.0025 0.0432341 15.439C0.130051 15.8754 0.344342 16.2763 0.659011 16.591C0.973679 16.9057 1.37459 17.12 1.81105 17.2068C2.2475 17.2936 2.6999 17.249 3.11104 17.0787C3.52217 16.9084 3.87357 16.62 4.12081 16.25C4.36804 15.88 4.5 15.445 4.5 15C4.49935 14.4035 4.26209 13.8315 3.84028 13.4097C3.41846 12.9879 2.84654 12.7506 2.25 12.75ZM2.25 0.75C1.80499 0.75 1.36998 0.88196 0.999968 1.12919C0.629957 1.37643 0.341569 1.72783 0.171272 2.13896C0.000974893 2.5501 -0.0435826 3.0025 0.0432341 3.43895C0.130051 3.87541 0.344342 4.27632 0.659011 4.59099C0.973679 4.90566 1.37459 5.11995 1.81105 5.20677C2.2475 5.29358 2.6999 5.24903 3.11104 5.07873C3.52217 4.90843 3.87357 4.62004 4.12081 4.25003C4.36804 3.88002 4.5 3.44501 4.5 3C4.49935 2.40346 4.26209 1.83154 3.84028 1.40972C3.41846 0.987906 2.84654 0.750645 2.25 0.75ZM2.25 24.75C1.80499 24.75 1.36998 24.882 0.999968 25.1292C0.629957 25.3764 0.341569 25.7278 0.171272 26.139C0.000974893 26.5501 -0.0435826 27.0025 0.0432341 27.439C0.130051 27.8754 0.344342 28.2763 0.659011 28.591C0.973679 28.9057 1.37459 29.12 1.81105 29.2068C2.2475 29.2936 2.6999 29.249 3.11104 29.0787C3.52217 28.9084 3.87357 28.62 4.12081 28.25C4.36804 27.88 4.5 27.445 4.5 27C4.49935 26.4035 4.26209 25.8315 3.84028 25.4097C3.41846 24.9879 2.84654 24.7506 2.25 24.75Z" fill="#A3E2F7"/>
</svg>
