<svg width="46" height="30" viewBox="0 0 46 30" fill="none" xmlns="http://www.w3.org/2000/svg">
<path d="M32 8.25V26.25C31.9991 27.0454 31.6827 27.8079 31.1203 28.3703C30.5579 28.9327 29.7954 29.2491 29 29.25H8C6.01158 29.2477 4.10525 28.4568 2.69922 27.0508C1.29319 25.6448 0.502283 23.7384 0.5 21.75V3.75C0.500893 2.95462 0.817251 2.19208 1.37967 1.62967C1.94208 1.06725 2.70462 0.750893 3.5 0.75H24.5C26.4884 0.752283 28.3948 1.54319 29.8008 2.94922C31.2068 4.35525 31.9977 6.26158 32 8.25ZM44.753 4.70269C44.5257 4.57084 44.2678 4.50098 44.0051 4.50009C43.7423 4.4992 43.484 4.56732 43.2558 4.69763L35.7558 8.98331C35.5262 9.11451 35.3354 9.30407 35.2026 9.53279C35.0699 9.76151 35 10.0212 35 10.2857V19.7143C35 19.9788 35.0699 20.2385 35.2026 20.4672C35.3354 20.6959 35.5262 20.8855 35.7558 21.0167L43.2558 25.3024C43.4839 25.4327 43.7423 25.5009 44.005 25.5C44.2678 25.4991 44.5257 25.4292 44.7529 25.2974C44.9801 25.1655 45.1688 24.9762 45.2999 24.7485C45.431 24.5209 45.5 24.2627 45.5 24V6C45.5 5.73727 45.4311 5.47915 45.3 5.25147C45.1689 5.02379 44.9802 4.83454 44.753 4.70269Z" fill="#A3E2F7"/>
</svg>
