<svg width="42" height="32" viewBox="0 0 42 32" fill="none" xmlns="http://www.w3.org/2000/svg">
<path d="M40.5 22.5H39V4.5C38.9987 3.30694 38.5241 2.16312 37.6805 1.3195C36.8369 0.475876 35.6931 0.00133994 34.5 0H7.5C6.30694 0.00133994 5.16312 0.475876 4.3195 1.3195C3.47588 2.16312 3.00134 3.30694 3 4.5V22.5H1.5C1.10218 22.5 0.720644 22.658 0.43934 22.9393C0.158035 23.2206 0 23.6022 0 24V27C0.00133994 28.1931 0.475876 29.3369 1.3195 30.1805C2.16312 31.0241 3.30694 31.4987 4.5 31.5H37.5C38.6931 31.4987 39.8369 31.0241 40.6805 30.1805C41.5241 29.3369 41.9987 28.1931 42 27V24C42 23.6022 41.842 23.2206 41.5607 22.9393C41.2794 22.658 40.8978 22.5 40.5 22.5ZM18 4.5H24C24.3978 4.5 24.7794 4.65804 25.0607 4.93934C25.342 5.22064 25.5 5.60218 25.5 6C25.5 6.39782 25.342 6.77936 25.0607 7.06066C24.7794 7.34196 24.3978 7.5 24 7.5H18C17.6022 7.5 17.2206 7.34196 16.9393 7.06066C16.658 6.77936 16.5 6.39782 16.5 6C16.5 5.60218 16.658 5.22064 16.9393 4.93934C17.2206 4.65804 17.6022 4.5 18 4.5ZM39 27C38.9995 27.3977 38.8413 27.7789 38.5601 28.0601C38.2789 28.3413 37.8977 28.4995 37.5 28.5H4.5C4.10233 28.4995 3.72109 28.3413 3.43989 28.0601C3.15869 27.7789 3.0005 27.3977 3 27V25.5H39V27Z" fill="#A3E2F7"/>
</svg>
