<svg width="40" height="41" viewBox="0 0 40 41" fill="none" xmlns="http://www.w3.org/2000/svg">
<path d="M36.5 4.5H21.5V1.5C21.5 1.10218 21.342 0.720644 21.0607 0.43934C20.7794 0.158035 20.3978 0 20 0C19.6022 0 19.2206 0.158035 18.9393 0.43934C18.658 0.720644 18.5 1.10218 18.5 1.5V4.5H3.5C2.70462 4.50089 1.94208 4.81725 1.37967 5.37967C0.817251 5.94208 0.500893 6.70462 0.5 7.5V30C0.500893 30.7954 0.817251 31.5579 1.37967 32.1203C1.94208 32.6827 2.70462 32.9991 3.5 33H10.8791L6.82869 38.0631C6.70359 38.2167 6.61015 38.3935 6.55377 38.5834C6.49739 38.7733 6.47918 38.9725 6.5002 39.1695C6.52122 39.3665 6.58105 39.5573 6.67623 39.7311C6.77141 39.9048 6.90006 40.058 7.05476 40.1817C7.20945 40.3054 7.38713 40.3973 7.57752 40.452C7.76791 40.5067 7.96726 40.5232 8.16404 40.5004C8.36083 40.4776 8.55116 40.4161 8.72404 40.3194C8.89692 40.2227 9.04894 40.0927 9.17131 39.9369L14.7209 33H25.2791L30.8287 39.9369C31.0785 40.2436 31.4393 40.4392 31.8326 40.4812C32.2259 40.5232 32.6198 40.4081 32.9287 40.161C33.2376 39.914 33.4364 39.5549 33.4818 39.162C33.5272 38.7691 33.4156 38.3741 33.1713 38.0631L29.1209 33H36.5C37.2954 32.9991 38.0579 32.6827 38.6203 32.1203C39.1827 31.5579 39.4991 30.7954 39.5 30V7.5C39.4991 6.70462 39.1827 5.94208 38.6203 5.37967C38.0579 4.81725 37.2954 4.50089 36.5 4.5ZM15.5 24C15.5 24.3978 15.342 24.7794 15.0607 25.0607C14.7794 25.342 14.3978 25.5 14 25.5C13.6022 25.5 13.2206 25.342 12.9393 25.0607C12.658 24.7794 12.5 24.3978 12.5 24V19.5C12.5 19.1022 12.658 18.7206 12.9393 18.4393C13.2206 18.158 13.6022 18 14 18C14.3978 18 14.7794 18.158 15.0607 18.4393C15.342 18.7206 15.5 19.1022 15.5 19.5V24ZM21.5 24C21.5 24.3978 21.342 24.7794 21.0607 25.0607C20.7794 25.342 20.3978 25.5 20 25.5C19.6022 25.5 19.2206 25.342 18.9393 25.0607C18.658 24.7794 18.5 24.3978 18.5 24V16.5C18.5 16.1022 18.658 15.7206 18.9393 15.4393C19.2206 15.158 19.6022 15 20 15C20.3978 15 20.7794 15.158 21.0607 15.4393C21.342 15.7206 21.5 16.1022 21.5 16.5V24ZM27.5 24C27.5 24.3978 27.342 24.7794 27.0607 25.0607C26.7794 25.342 26.3978 25.5 26 25.5C25.6022 25.5 25.2206 25.342 24.9393 25.0607C24.658 24.7794 24.5 24.3978 24.5 24V13.5C24.5 13.1022 24.658 12.7206 24.9393 12.4393C25.2206 12.158 25.6022 12 26 12C26.3978 12 26.7794 12.158 27.0607 12.4393C27.342 12.7206 27.5 13.1022 27.5 13.5V24Z" fill="#A3E2F7"/>
</svg>
