<svg width="966" height="61" viewBox="0 0 966 61" fill="none" xmlns="http://www.w3.org/2000/svg">
<path d="M22.0659 61C16.7433 61.0091 11.5964 59.5512 7.57816 56.896C3.55988 54.2409 0.94212 50.5683 0.209561 46.558C-0.522998 42.5478 0.67922 38.4714 3.59359 35.0835C6.50797 31.6955 10.9373 29.2254 16.0616 28.1303C24.7078 26.273 230.336 -17.1471 476.013 7.60782C637.11 23.8371 754.574 25.0398 824.725 23.1976C900.78 21.2032 939.108 15.2962 939.488 15.2353C942.319 14.7864 945.238 14.7661 948.079 15.1754C950.92 15.5848 953.627 16.4158 956.046 17.621C958.465 18.8262 960.548 20.382 962.176 22.1996C963.805 24.0171 964.947 26.0609 965.537 28.2142C966.127 30.3674 966.153 32.5879 965.615 34.749C965.077 36.9101 963.985 38.9695 962.4 40.8095C960.816 42.6494 958.771 44.234 956.381 45.4727C953.992 46.7114 951.305 47.5799 948.474 48.0287C942.03 49.0487 787.098 72.7228 470.129 40.8123C233.959 17.0165 29.9915 59.9343 27.9701 60.3606C26.0505 60.7812 24.0635 60.9963 22.0659 61V61Z" fill="#1E1E1E"/>
</svg>
