<svg width="55" height="40" viewBox="0 0 55 40" fill="none" xmlns="http://www.w3.org/2000/svg">
<path fill-rule="evenodd" clip-rule="evenodd" d="M12.2359 -0.000732422C20.4805 -0.000732422 26.019 6.1231 26.019 15.2489C26.019 33.3759 16.744 39.8746 0.642177 39.9993V32.4996C5.79738 32.4996 9.40049 31.2483 11.7212 29.3758C14.041 27.6241 15.1979 25.2501 15.4557 22.8733C15.1979 23.1235 13.6517 23.7496 12.2359 23.7496C4.76594 23.7496 0 18.4983 0 11.9996C0 5.37524 5.40812 -0.000732422 12.2359 -0.000732422ZM41.217 -0.000732422C49.4606 -0.000732422 55.0001 6.1231 55.0001 15.2489C55.0001 33.3759 45.5937 39.8746 29.6233 39.9993V32.4996C34.7785 32.4996 38.3816 31.2483 40.5768 29.3758C43.0221 27.6241 44.0535 25.2501 44.4368 22.8733C44.0535 23.1235 42.5063 23.7496 41.217 23.7496C33.747 23.7496 28.9811 18.4983 28.9811 11.9996C28.9811 5.37524 34.3892 -0.000732422 41.217 -0.000732422Z" fill="#FF3C78"/>
</svg>
